<svg id="fecc1e25-3978-4e98-83fe-1443cf73e937" preserveAspectRatio="xMinYMid" data-name="Слой 1" xmlns="http://www.w3.org/2000/svg" viewBox="0 0 283.46 283.46"><title>delonix_</title><path d="M193.72,252.06h-.05a4.68,4.68,0,0,0,0,9.35h.05a4.68,4.68,0,1,0,0-9.35Zm0,0"/><path d="M259.37,110,231.49,90.89V36.08a14,14,0,0,0-14-14H66a14,14,0,0,0-14,14V91.82l-27.79,18.1a4.68,4.68,0,0,0-2.12,3.92V244.75a16.67,16.67,0,0,0,16.65,16.66H175a4.68,4.68,0,1,0,0-9.35H47.06L106,193.12h0l13.88-13.88a30.88,30.88,0,0,1,43.68,0l72.83,72.83h-24a4.68,4.68,0,0,0,0,9.35h32.38a16.67,16.67,0,0,0,16.66-16.66V113.84a4.67,4.67,0,0,0-2-3.86Zm-9.92,4.53-18,18V102.22ZM52,132.47,34.11,114.61,52,103ZM31.41,244.75V125.12l64.68,64.69L34.93,251v0a7.29,7.29,0,0,1-3.51-6.23Zm110.32-83.91a40,40,0,0,0-28.45,11.78L102.7,183.2,61.32,141.82V36.08A4.68,4.68,0,0,1,66,31.41H217.46a4.68,4.68,0,0,1,4.68,4.67V141.82L180.76,183.2l-10.58-10.58a40,40,0,0,0-28.45-11.78ZM248.55,251l-61.18-61.17,64.69-64.69V244.75a7.29,7.29,0,0,1-3.51,6.23Zm0,0"/></svg>