<svg id="Слой_1" data-name="Слой 1" xmlns="http://www.w3.org/2000/svg" xmlns:xlink="http://www.w3.org/1999/xlink" viewBox="0 0 113.12 110.18">
    <defs>
        <style>
        .cls-1 {
            fill: none;
        }

        .cls-2 {
            clip-path: url(#clip-path);
        }

        .cls-3 {
            fill: #e31013;
        }

        .cls-4 {
            fill: #fff;
        }
        </style>
        <clipPath id="clip-path">
            <rect class="cls-1" x="0.83" y="0.6" width="111.47" height="109.07" />
        </clipPath>
    </defs>
    <title>лого1</title>
    <g class="cls-2">
        <rect class="cls-3" x="0.83" y="0.6" width="111.47" height="109.07" />
        <path class="cls-4" d="M5.24,110.71V-.44H31.45q15.68,0,25.65,2.17A55.08,55.08,0,0,1,75.17,9a49.29,49.29,0,0,1,18,19.25q6.15,11.82,6.15,27.18,0,15.93-6.88,28.17a49.9,49.9,0,0,1-20,19.43q-13.92,7.64-37.25,7.64Zm11.12-10.06H31.89q15.24,0,24.73-2.5a40.93,40.93,0,0,0,16.27-8.23A41.38,41.38,0,0,0,84.08,74.64,48.94,48.94,0,0,0,88,55a46.86,46.86,0,0,0-5.59-22.92A39.71,39.71,0,0,0,66.71,16.24a47,47,0,0,0-14.36-5A110.59,110.59,0,0,0,31.89,9.63H16.36Z" />
    </g>
</svg>